<svg width="17" height="15" viewBox="0 0 17 15" fill="none" xmlns="http://www.w3.org/2000/svg">
<path d="M15.25 8.24799H9.625V13.0533C9.625 13.5819 9.11875 14.0144 8.5 14.0144C7.88125 14.0144 7.375 13.5819 7.375 13.0533V8.24799H1.75C1.13125 8.24799 0.625 7.81551 0.625 7.28692C0.625 6.75834 1.13125 6.32586 1.75 6.32586H7.375V1.52052C7.375 0.991929 7.88125 0.559448 8.5 0.559448C9.11875 0.559448 9.625 0.991929 9.625 1.52052V6.32586H15.25C15.8687 6.32586 16.375 6.75834 16.375 7.28692C16.375 7.81551 15.8687 8.24799 15.25 8.24799Z" fill="#535353"/>
</svg>
