<svg width="16" height="16" viewBox="0 0 16 16" fill="none" xmlns="http://www.w3.org/2000/svg">
<g clip-path="url(#clip0)">
<path d="M3.54594 9.66892L2.989 11.7481L0.953406 11.7911C0.345063 10.6628 0 9.3718 0 7.99993C0 6.67333 0.322625 5.42233 0.8945 4.3208H0.894938L2.70719 4.65305L3.50106 6.45443C3.33491 6.93883 3.24434 7.45883 3.24434 7.99993C3.24441 8.58718 3.35078 9.14983 3.54594 9.66892Z" fill="#0C7E86"/>
<path d="M15.8591 6.50537C15.951 6.98931 15.9989 7.48909 15.9989 7.99987C15.9989 8.57262 15.9387 9.13131 15.824 9.67021C15.4346 11.5041 14.417 13.1054 13.0073 14.2386L13.0069 14.2381L10.7242 14.1217L10.4012 12.1049C11.3366 11.5564 12.0676 10.6979 12.4526 9.67021H8.1748V6.50537H12.515H15.8591Z" fill="#518EF8"/>
<path d="M13.0071 14.2382L13.0076 14.2386C11.6366 15.3406 9.89504 15.9999 7.99923 15.9999C4.95264 15.9999 2.30386 14.2971 0.952637 11.7911L3.54517 9.66895C4.22076 11.472 5.9601 12.7555 7.99923 12.7555C8.8757 12.7555 9.69682 12.5186 10.4014 12.105L13.0071 14.2382Z" fill="#28B446"/>
<path d="M13.1074 1.84175L10.5157 3.9635C9.78651 3.50769 8.92451 3.24437 8.00101 3.24437C5.91573 3.24437 4.14385 4.58678 3.5021 6.4545L0.895945 4.32088H0.895508C2.22695 1.75384 4.90913 0 8.00101 0C9.9421 0 11.7219 0.691437 13.1074 1.84175Z" fill="#F14336"/>
</g>
<defs>
<clipPath id="clip0">
<rect width="16" height="16" fill="white"/>
</clipPath>
</defs>
</svg>
