<svg width="28" height="24" viewBox="0 0 28 24" fill="none" xmlns="http://www.w3.org/2000/svg">
<path d="M14.3445 13.2481C14.9729 13.2481 15.4824 12.8178 15.4824 12.287C15.4824 11.7562 14.9729 11.3259 14.3445 11.3259C13.716 11.3259 13.2065 11.7562 13.2065 12.287C13.2065 12.8178 13.716 13.2481 14.3445 13.2481Z" stroke="#535353" stroke-width="2" stroke-linecap="round" stroke-linejoin="round"/>
<path d="M22.3103 13.2481C22.9388 13.2481 23.4482 12.8178 23.4482 12.287C23.4482 11.7562 22.9388 11.3259 22.3103 11.3259C21.6818 11.3259 21.1724 11.7562 21.1724 12.287C21.1724 12.8178 21.6818 13.2481 22.3103 13.2481Z" stroke="#535353" stroke-width="2" stroke-linecap="round" stroke-linejoin="round"/>
<path d="M6.37914 13.2481C7.0076 13.2481 7.51707 12.8178 7.51707 12.287C7.51707 11.7562 7.0076 11.3259 6.37914 11.3259C5.75068 11.3259 5.24121 11.7562 5.24121 12.287C5.24121 12.8178 5.75068 13.2481 6.37914 13.2481Z" stroke="#535353" stroke-width="2" stroke-linecap="round" stroke-linejoin="round"/>
</svg>
