<svg width="45" height="45" viewBox="0 0 45 45" fill="none" xmlns="http://www.w3.org/2000/svg">
<circle cx="22.5" cy="22.5" r="22.5" fill="#F38686"/>
<path d="M22.2568 28.625H20.9375V24.0244H15.9199V28.625H14.6074V18.6719H15.9199V22.9512H20.9375V18.6719H22.2568V28.625ZM29.2061 28.625C29.1331 28.4792 29.0739 28.2194 29.0283 27.8457C28.4404 28.4564 27.7386 28.7617 26.9229 28.7617C26.1937 28.7617 25.5944 28.5566 25.125 28.1465C24.6602 27.7318 24.4277 27.2077 24.4277 26.5742C24.4277 25.804 24.7194 25.207 25.3027 24.7832C25.8906 24.3548 26.7155 24.1406 27.7773 24.1406H29.0078V23.5596C29.0078 23.1175 28.8757 22.7666 28.6113 22.5068C28.347 22.2425 27.9574 22.1104 27.4424 22.1104C26.9912 22.1104 26.613 22.2243 26.3076 22.4521C26.0023 22.68 25.8496 22.9557 25.8496 23.2793H24.5781C24.5781 22.9102 24.708 22.5547 24.9678 22.2129C25.2321 21.8665 25.5876 21.5931 26.0342 21.3926C26.4854 21.1921 26.9798 21.0918 27.5176 21.0918C28.3698 21.0918 29.0374 21.306 29.5205 21.7344C30.0036 22.1582 30.2542 22.7438 30.2725 23.4912V26.8955C30.2725 27.5745 30.359 28.1146 30.5322 28.5156V28.625H29.2061ZM27.1074 27.6611C27.5039 27.6611 27.8799 27.5586 28.2354 27.3535C28.5908 27.1484 28.8483 26.8818 29.0078 26.5537V25.0361H28.0166C26.4671 25.0361 25.6924 25.4896 25.6924 26.3965C25.6924 26.793 25.8245 27.1029 26.0889 27.3262C26.3532 27.5495 26.6927 27.6611 27.1074 27.6611Z" fill="white"/>
</svg>
